<?xml version="1.0" encoding="UTF-8"?>
<svg id="_圖層_1" data-name="圖層 1" xmlns="http://www.w3.org/2000/svg" viewBox="0 0 618.43 880.48">
  <defs>
    <style>
      .cls-1 {
        fill: #040000;
      }
    </style>
  </defs>
  <path class="cls-1" d="M618.36,303.87c-2.35-82.11-66.23-149.32-148.1-155.7C463.87,66.3,396.66,2.42,314.57,.07v-.07h-9.37V.07c-82.52,2.36-149.99,66.88-155.78,149.34C66.95,155.22,2.44,222.68,.07,305.2h-.07v9.37H.07c2.35,82.11,66.23,149.32,148.1,155.7,6.39,81.87,73.59,145.75,155.69,148.1v.07h4.33c.44,.14,.9,.23,1.39,.23h0c.49,0,.95-.1,1.39-.23h2.26v-.07c82.52-2.36,149.99-66.88,155.78-149.34,82.47-5.81,146.98-73.26,149.34-155.78h.07v-9.37h-.07Zm-185.26,46.11c-.22,.67-.43,1.34-.66,2-.19,.56-.39,1.11-.59,1.66-.16,.44-.31,.89-.48,1.33-.26,.72-.54,1.43-.81,2.13-.1,.27-.21,.54-.31,.81-.35,.88-.71,1.75-1.07,2.62-.03,.08-.07,.17-.1,.25-.26,.61-.53,1.22-.8,1.82-.46,1.04-.94,2.08-1.42,3.11-.49,1.04-1,2.07-1.51,3.09-.25,.49-.5,.98-.76,1.47-.81,1.56-1.65,3.1-2.53,4.62-.02,.03-.03,.05-.05,.08-4.68,8.12-10.21,15.7-16.47,22.61l-83.37-83.37,117.12-.13c-.38,11.93-2.33,23.59-5.86,34.85-.11,.35-.23,.69-.34,1.04Zm-73.23,79.49c-.61,.25-1.22,.51-1.84,.75-.39,.16-.79,.3-1.18,.46-.62,.24-1.24,.48-1.87,.71-.34,.13-.69,.25-1.04,.37-.68,.24-1.36,.49-2.05,.72-.25,.09-.51,.17-.76,.25-.78,.26-1.57,.52-2.35,.77-.11,.03-.22,.06-.33,.1-5.07,1.57-10.27,2.84-15.58,3.78-6.17,1.1-12.44,1.74-18.79,1.94l-.13-120.05,85,85c-.51,.48-1.01,.98-1.53,1.45-.05,.04-.1,.09-.14,.13-1.45,1.3-2.92,2.57-4.41,3.8-.15,.13-.31,.25-.47,.38-1.41,1.15-2.85,2.28-4.3,3.37-.22,.17-.45,.33-.67,.49-1.35,.99-2.71,1.96-4.09,2.91-.28,.19-.57,.39-.86,.58-1.41,.94-2.84,1.86-4.28,2.75-.18,.11-.37,.23-.55,.34-1.61,.98-3.24,1.92-4.9,2.83-.11,.06-.22,.13-.33,.19-1.74,.95-3.5,1.86-5.29,2.73-.03,.01-.05,.03-.08,.04-1.83,.89-3.68,1.74-5.56,2.55h0c-.16,.07-.32,.14-.48,.21-.38,.16-.76,.32-1.14,.48Zm-175.67-157.31c.25-.88,.51-1.75,.79-2.63,.15-.48,.31-.96,.47-1.43,.17-.53,.34-1.07,.52-1.6,.23-.67,.47-1.33,.7-1.99,.12-.33,.23-.67,.36-1,.3-.81,.61-1.62,.92-2.42,.07-.17,.13-.35,.2-.52,.63-1.59,1.29-3.16,1.98-4.71,.47-1.07,.95-2.12,1.45-3.17,.48-1.02,.98-2.04,1.49-3.04,.25-.5,.51-1,.77-1.5,.81-1.55,1.64-3.08,2.51-4.6,.02-.03,.04-.07,.06-.1,4.99-8.67,10.96-16.7,17.73-23.97l85.41,85.41-120.46,.13c.29-11.07,1.95-21.92,4.95-32.42,.04-.14,.09-.29,.13-.43Zm74.5-83.24c.56-.23,1.11-.46,1.67-.68,.45-.18,.9-.35,1.35-.52,.57-.22,1.13-.44,1.7-.65,.41-.15,.82-.29,1.23-.44,.62-.22,1.24-.44,1.86-.66,.33-.11,.66-.22,.99-.32,.71-.23,1.42-.47,2.13-.69,.2-.06,.41-.12,.61-.18,.84-.26,1.68-.51,2.52-.75,.05-.01,.1-.03,.15-.04,3.52-1,7.1-1.84,10.73-2.54,6.82-1.32,13.76-2.09,20.79-2.31l.13,117.49-83.72-83.72c.07-.06,.13-.13,.2-.19,.02-.02,.04-.03,.05-.05,1.48-1.33,2.98-2.62,4.51-3.88,.12-.1,.24-.19,.36-.29,1.45-1.18,2.91-2.33,4.4-3.45,.19-.14,.38-.28,.57-.42,1.4-1.03,2.81-2.04,4.25-3.02,.23-.16,.47-.31,.7-.47,1.46-.98,2.93-1.92,4.43-2.84,.15-.09,.29-.18,.44-.27,1.65-1,3.32-1.96,5.01-2.89,.08-.04,.16-.09,.24-.13,3.56-1.94,7.21-3.72,10.96-5.34h0c.15-.06,.29-.13,.44-.19,.44-.19,.88-.37,1.32-.55Zm-44.53,208.73c-20.53-22.05-33.56-51.17-34.96-83.27l118.36-.13-83.4,83.4Zm190.1-176.85c20.67,22.2,33.73,51.57,34.99,83.93l-119.05,.13,84.06-84.06Zm-6.63-6.63l-83.71,83.71-.13-118.71c16.12,.64,31.5,4.19,45.62,10.17,14.19,6.01,27.1,14.47,38.22,24.83Zm-176.85,190.1l83.79-83.79,.13,118.8c-13.92-.54-27.29-3.26-39.78-7.84-16.53-6.07-31.5-15.39-44.14-27.17Zm388.2-100.4h-159c-.33-9.95-1.68-19.72-4.06-29.25-.03-.1-.05-.2-.07-.3-.19-.74-.38-1.49-.58-2.23-.14-.51-.28-1.02-.42-1.53-.11-.4-.23-.8-.34-1.2-.26-.91-.54-1.82-.82-2.73-.01-.04-.03-.08-.04-.12-4.81-15.39-12.28-29.85-22.17-42.81-.29-.38-.58-.76-.88-1.14-.53-.68-1.07-1.36-1.62-2.03-.96-1.19-1.94-2.36-2.94-3.52-.09-.1-.17-.2-.26-.3-1.15-1.32-2.32-2.62-3.51-3.9l55.42-55.42c77.88,5.13,138.94,68.66,141.3,146.48Zm-147.95-153.1l-55.4,55.4c-3.51-3.29-7.2-6.4-11.07-9.33-.16-.12-.31-.24-.47-.36-.1-.08-.2-.16-.31-.23-.26-.19-.52-.38-.77-.57-.47-.35-.94-.7-1.42-1.04-16.84-12.15-36.05-20.31-56.48-24-.18-.03-.37-.07-.55-.1-.67-.12-1.34-.22-2.01-.33-.55-.09-1.09-.18-1.64-.26-.25-.04-.5-.07-.75-.1-5.15-.75-10.36-1.2-15.61-1.38V9.44c77.82,2.36,141.34,63.42,146.48,141.32ZM304.25,9.48l.17,159c-6,.23-11.9,.84-17.69,1.8-.52,.09-1.03,.17-1.54,.26-.2,.04-.4,.08-.6,.11-21.66,3.92-41.98,12.88-59.54,26.28-.4,.3-.79,.6-1.18,.91-.66,.51-1.31,1.04-1.96,1.56-1.23,.99-2.45,2.01-3.64,3.04-.07,.06-.14,.12-.21,.18-1.33,1.16-2.65,2.33-3.94,3.54l-55.4-55.4C163.82,73.18,226.85,12.31,304.25,9.48ZM150.79,158.72l55.42,55.42c-17.88,19.04-29.85,42.25-34.98,67.41,0,.04-.02,.08-.03,.12-.14,.69-.27,1.39-.4,2.09-.1,.55-.21,1.11-.31,1.66-.03,.15-.05,.3-.08,.45-1.08,6.25-1.75,12.64-1.97,19.14l-159,.17c2.36-77.82,63.44-141.35,141.35-146.47ZM9.44,314.57H168.44c.33,9.96,1.69,19.75,4.07,29.29,.02,.08,.04,.16,.06,.25,.19,.76,.39,1.52,.6,2.28,.13,.49,.27,.99,.4,1.48,.12,.41,.24,.83,.36,1.24,.26,.9,.53,1.79,.81,2.68,.02,.06,.03,.11,.05,.17,4.81,15.38,12.27,29.82,22.15,42.77,.3,.4,.6,.79,.91,1.18,.51,.66,1.04,1.31,1.56,1.96,.99,1.23,2.01,2.45,3.04,3.64,.06,.07,.12,.14,.18,.21,1.15,1.33,2.33,2.64,3.53,3.92l-55.42,55.42c-77.89-5.13-138.94-68.66-141.3-146.48Zm147.95,153.1l55.4-55.4c3.52,3.3,7.23,6.42,11.1,9.35,.15,.12,.3,.23,.45,.35,.09,.07,.19,.14,.28,.22,.25,.19,.5,.37,.75,.55,.49,.36,.97,.72,1.46,1.07,16.81,12.13,35.99,20.28,56.38,23.97,.22,.04,.44,.08,.66,.12,.63,.11,1.27,.21,1.91,.31,.58,.09,1.16,.19,1.73,.28,.22,.03,.43,.06,.65,.09,5.18,.75,10.41,1.22,15.7,1.39v159.02c-77.82-2.36-141.34-63.43-146.48-141.33Zm156.88,141.28l-.17-159.01c5.87-.23,11.65-.82,17.31-1.75,.63-.1,1.25-.2,1.88-.31,.12-.02,.24-.05,.37-.07,21.73-3.9,42.11-12.87,59.73-26.32,.4-.3,.79-.6,1.18-.91,.66-.51,1.31-1.03,1.96-1.56,1.24-1,2.45-2.01,3.66-3.05,.07-.06,.13-.11,.2-.17,1.33-1.16,2.65-2.34,3.94-3.54l55.4,55.4c-5.1,77.55-68.09,138.41-145.45,141.28Zm153.37-149.23l-36.09-36.09s-.08-.1-.12-.15l-19.19-19.19c17.85-19.02,29.81-42.19,34.95-67.31,.02-.08,.03-.16,.05-.24,.13-.65,.25-1.31,.38-1.97,.11-.59,.23-1.19,.33-1.78,.02-.11,.04-.22,.05-.32,1.06-6.07,1.72-12.28,1.96-18.59l159-.17c-2.69,77.52-63.63,140.7-141.32,145.81Z"/>
  <path class="cls-1" d="M206.34,663.68h-6.82c-1.22,0-2.28,.82-2.59,1.99l-44.58,168.61-44.81-168.62c-.31-1.17-1.37-1.99-2.59-1.99h-6.7c-1.48,0-2.68,1.2-2.68,2.68v186.66c0,1.48,1.2,2.68,2.68,2.68h5.36c1.48,0,2.68-1.2,2.68-2.68v-151.27l40.31,151.95c.31,1.17,1.37,1.99,2.59,1.99h6.21c1.22,0,2.28-.82,2.59-1.99l40.19-151.9v151.21c0,1.48,1.2,2.68,2.68,2.68h5.48c1.48,0,2.68-1.2,2.68-2.68v-186.66c0-1.48-1.2-2.68-2.68-2.68Z"/>
  <path class="cls-1" d="M337.61,665.19h-5.36c-1.48,0-2.68,1.2-2.68,2.68v155.11c0,17.28-8.38,24.98-27.17,24.98-14.96,0-30.94-6.56-30.94-24.98v-155.11c0-1.48-1.2-2.68-2.68-2.68h-5.36c-1.48,0-2.68,1.2-2.68,2.68v154.98c0,22.09,15.82,35.82,41.29,35.82h.61c24.98,0,37.64-12.01,37.64-35.7v-155.11c0-1.48-1.2-2.68-2.68-2.68Z"/>
  <path class="cls-1" d="M456.61,845.06c3.98-3.35,10.13-11.15,10.13-27.32v-122.94c0-20.4-15.99-35.21-38.01-35.21h-.37c-18.56,0-37.76,13.17-37.76,35.21v122.94c0,22.65,19.39,36.18,38.13,36.18h1.1c7.21,0,14.17-1.89,17.17-2.82l32.6,28.72c.51,.45,1.14,.67,1.77,.67,.73,0,1.45-.29,1.98-.87l3.78-4.14c.48-.53,.73-1.24,.7-1.95-.04-.72-.37-1.39-.91-1.86l-30.3-26.59Zm-.59-150.26v122.94c0,17.33-14.15,25.23-27.29,25.23s-27.41-10.14-27.41-25.23v-122.94c0-13.6,12.04-24.25,27.41-24.25s27.29,10.65,27.29,24.25Z"/>
  <rect class="cls-1" x="519.75" y="663.94" width="10.72" height="192.02" rx="2.68" ry="2.68"/>
</svg>