<?xml version="1.0" encoding="UTF-8"?>
<svg id="_圖層_1" data-name="圖層 1" xmlns="http://www.w3.org/2000/svg" viewBox="0 0 1000 1000">
  <defs>
    <style>
      .cls-1 {
        fill: #040000;
      }
    </style>
  </defs>
  <path class="cls-1" d="M873.71,493.37c-2.84-99.3-80.09-180.57-179.1-188.28-7.73-99.01-89-176.26-188.28-179.1v-.09h-11.33v.09c-99.8,2.86-181.38,80.88-188.38,180.6-99.73,7.02-177.74,88.6-180.6,188.38h-.09v11.33h.09c2.84,99.3,80.09,180.57,179.1,188.28,7.73,99.01,89,176.25,188.28,179.1v.09h5.24c.53,.17,1.09,.28,1.68,.28h0c.59,0,1.14-.12,1.68-.28h2.73v-.09c99.8-2.86,181.38-80.88,188.38-180.6,99.73-7.02,177.74-88.6,180.6-188.38h.09v-11.33h-.09Zm-224.04,55.76c-.26,.81-.52,1.62-.79,2.42-.23,.67-.47,1.34-.71,2.01-.19,.54-.38,1.08-.58,1.61-.32,.86-.65,1.72-.98,2.58-.13,.33-.25,.66-.38,.98-.42,1.06-.85,2.12-1.3,3.17-.04,.1-.08,.2-.12,.3-.31,.74-.64,1.47-.97,2.2-.56,1.26-1.13,2.52-1.72,3.76-.59,1.25-1.2,2.5-1.83,3.74-.3,.6-.61,1.19-.92,1.78-.98,1.88-2,3.75-3.06,5.59-.02,.03-.04,.07-.06,.1-5.66,9.82-12.35,18.99-19.91,27.34l-100.82-100.82,141.63-.15c-.45,14.43-2.82,28.53-7.08,42.14-.13,.42-.27,.83-.41,1.25Zm-88.56,96.12c-.74,.31-1.48,.61-2.22,.91-.47,.19-.95,.37-1.43,.55-.75,.29-1.5,.58-2.26,.86-.42,.15-.83,.3-1.25,.45-.82,.3-1.65,.59-2.48,.88-.31,.1-.62,.2-.92,.3-.95,.32-1.89,.63-2.85,.93-.13,.04-.26,.08-.39,.12-6.13,1.9-12.42,3.43-18.84,4.57-7.46,1.32-15.05,2.1-22.72,2.34l-.16-145.18,102.79,102.79c-.62,.58-1.22,1.18-1.85,1.75-.06,.05-.12,.1-.17,.16-1.75,1.57-3.53,3.11-5.34,4.6-.19,.15-.38,.3-.56,.45-1.71,1.39-3.44,2.76-5.2,4.07-.27,.2-.54,.39-.81,.59-1.63,1.2-3.28,2.38-4.95,3.51-.34,.23-.69,.47-1.04,.7-1.7,1.14-3.43,2.25-5.18,3.32-.22,.14-.44,.28-.66,.41-1.95,1.18-3.92,2.32-5.92,3.42-.13,.07-.27,.15-.4,.23-2.1,1.15-4.24,2.25-6.4,3.31-.03,.02-.06,.03-.09,.05-2.21,1.08-4.45,2.11-6.72,3.08h0c-.19,.08-.39,.17-.58,.25-.46,.2-.92,.38-1.38,.58Zm-212.44-190.23c.31-1.06,.62-2.12,.95-3.18,.18-.58,.38-1.16,.56-1.73,.21-.65,.42-1.29,.63-1.93,.28-.81,.56-1.61,.85-2.41,.14-.4,.28-.81,.43-1.21,.36-.98,.74-1.96,1.12-2.93,.08-.21,.16-.42,.24-.63,.76-1.92,1.57-3.82,2.4-5.7,.57-1.29,1.15-2.56,1.75-3.83,.59-1.24,1.19-2.46,1.8-3.68,.31-.61,.62-1.21,.94-1.81,.98-1.87,1.99-3.73,3.04-5.56,.02-.04,.05-.08,.07-.12,6.04-10.48,13.25-20.2,21.45-28.99l103.28,103.28-145.67,.16c.35-13.39,2.36-26.5,5.99-39.2,.05-.17,.1-.35,.15-.52Zm90.1-100.66c.67-.28,1.34-.56,2.02-.83,.54-.22,1.09-.42,1.64-.63,.68-.26,1.37-.53,2.05-.78,.49-.18,.99-.35,1.49-.53,.75-.27,1.5-.54,2.25-.79,.4-.13,.8-.26,1.19-.39,.86-.28,1.72-.57,2.58-.84,.25-.08,.49-.15,.74-.22,1.01-.31,2.03-.62,3.05-.91,.06-.02,.12-.03,.18-.05,4.25-1.21,8.58-2.23,12.97-3.08,8.25-1.59,16.64-2.53,25.14-2.79l.15,142.08-101.24-101.24c.08-.07,.16-.15,.24-.22,.02-.02,.04-.04,.06-.06,1.78-1.61,3.6-3.17,5.45-4.69,.15-.12,.29-.24,.44-.35,1.75-1.43,3.52-2.82,5.32-4.17,.23-.17,.46-.33,.69-.5,1.69-1.25,3.4-2.47,5.13-3.65,.28-.19,.57-.38,.85-.57,1.76-1.18,3.55-2.33,5.35-3.44,.18-.11,.35-.22,.53-.33,1.99-1.21,4.01-2.37,6.06-3.5,.1-.05,.19-.11,.28-.16,4.3-2.35,8.72-4.5,13.25-6.45h0c.18-.08,.35-.16,.53-.23,.53-.23,1.06-.44,1.59-.66Zm-53.86,252.41c-24.83-26.67-40.58-61.88-42.28-100.69l143.13-.16-100.85,100.85Zm229.89-213.86c25,26.85,40.79,62.37,42.31,101.5l-143.96,.16,101.65-101.65Zm-8.01-8.01l-101.23,101.23-.16-143.56c19.49,.77,38.09,5.07,55.17,12.3,17.16,7.27,32.78,17.5,46.22,30.02Zm-213.87,229.89l101.33-101.33,.16,143.66c-16.84-.65-33.01-3.94-48.11-9.48-19.99-7.34-38.09-18.61-53.38-32.85Zm469.45-121.41h-192.28c-.39-12.03-2.04-23.85-4.91-35.37-.03-.12-.06-.24-.09-.37-.23-.9-.46-1.8-.7-2.69-.17-.62-.33-1.23-.5-1.85-.14-.48-.27-.97-.42-1.45-.32-1.1-.65-2.2-.99-3.3-.02-.05-.03-.1-.05-.15-5.82-18.61-14.85-36.09-26.82-51.77-.35-.46-.7-.92-1.06-1.37-.64-.82-1.3-1.64-1.96-2.46-1.16-1.44-2.35-2.86-3.56-4.26-.1-.12-.21-.24-.31-.36-1.39-1.6-2.8-3.17-4.25-4.72l67.02-67.01c94.19,6.21,168.01,83.03,170.87,177.13Zm-178.92-185.15l-67,67c-4.25-3.97-8.71-7.74-13.38-11.28-.19-.14-.38-.29-.56-.43-.12-.09-.24-.19-.37-.28-.31-.23-.63-.46-.94-.69-.57-.42-1.14-.84-1.72-1.26-20.36-14.7-43.59-24.56-68.3-29.02-.22-.04-.44-.08-.67-.12-.81-.14-1.62-.27-2.43-.4-.66-.11-1.32-.22-1.98-.32-.3-.04-.6-.08-.91-.13-6.23-.9-12.52-1.46-18.88-1.66V137.32c94.1,2.85,170.93,76.7,177.13,170.9Zm-189.61-170.86l.21,192.28c-7.25,.28-14.39,1.01-21.39,2.18-.62,.1-1.25,.2-1.87,.31-.24,.04-.48,.09-.73,.14-26.2,4.74-50.76,15.57-72,31.78-.48,.36-.95,.73-1.43,1.1-.8,.62-1.59,1.25-2.37,1.89-1.49,1.2-2.96,2.43-4.41,3.68-.08,.07-.17,.14-.25,.21-1.61,1.4-3.2,2.82-4.76,4.28l-67-67c6.17-93.82,82.4-167.43,175.99-170.85Zm-185.57,180.47l67.01,67.02c-21.62,23.03-36.1,51.09-42.3,81.52-.01,.05-.02,.1-.03,.15-.17,.84-.33,1.68-.49,2.53-.13,.67-.26,1.34-.38,2.01-.03,.18-.06,.36-.09,.55-1.31,7.56-2.11,15.29-2.38,23.15l-192.28,.21c2.86-94.11,76.72-170.94,170.93-177.13Zm-170.93,188.47h192.28c.39,12.04,2.04,23.88,4.92,35.42,.02,.1,.05,.2,.07,.3,.23,.92,.47,1.84,.72,2.75,.16,.6,.32,1.19,.49,1.79,.14,.5,.28,1,.43,1.5,.31,1.08,.64,2.16,.97,3.24,.02,.07,.04,.13,.06,.2,5.82,18.59,14.84,36.06,26.79,51.72,.36,.48,.73,.95,1.1,1.43,.62,.8,1.25,1.59,1.89,2.37,1.2,1.49,2.43,2.96,3.68,4.41,.07,.08,.14,.17,.21,.25,1.39,1.61,2.81,3.19,4.27,4.74l-67.01,67.01c-94.19-6.21-168.01-83.03-170.87-177.13Zm178.92,185.15l67-67c4.26,3.99,8.74,7.76,13.42,11.31,.18,.14,.36,.28,.55,.42,.11,.09,.22,.18,.34,.26,.3,.23,.61,.45,.91,.67,.59,.43,1.18,.87,1.77,1.29,20.33,14.67,43.52,24.52,68.18,28.99,.27,.05,.53,.1,.79,.15,.77,.14,1.54,.26,2.31,.38,.7,.11,1.4,.23,2.1,.34,.26,.04,.53,.07,.79,.11,6.26,.91,12.59,1.47,18.98,1.68v192.3c-94.1-2.86-170.93-76.7-177.13-170.9Zm189.71,170.85l-.21-192.28c7.1-.28,14.08-.99,20.94-2.12,.76-.12,1.52-.24,2.27-.38,.15-.03,.3-.06,.44-.08,26.28-4.72,50.93-15.57,72.23-31.82,.48-.36,.95-.73,1.43-1.1,.79-.62,1.58-1.25,2.37-1.88,1.49-1.2,2.97-2.43,4.42-3.69,.08-.07,.16-.14,.24-.21,1.61-1.4,3.2-2.82,4.76-4.28l67,67c-6.16,93.78-82.34,167.38-175.89,170.85Zm185.47-180.47l-43.65-43.65c-.05-.06-.09-.13-.15-.18l-23.2-23.2c21.59-23,36.05-51.01,42.26-81.4,.02-.09,.04-.19,.06-.28,.16-.79,.31-1.59,.46-2.38,.14-.72,.28-1.43,.4-2.15,.02-.13,.04-.26,.07-.39,1.28-7.34,2.07-14.84,2.37-22.47l192.28-.21c-3.25,93.74-76.95,170.15-170.9,176.33Z"/>
</svg>