<?xml version="1.0" encoding="UTF-8"?>
<svg id="_圖層_1" data-name="圖層 1" xmlns="http://www.w3.org/2000/svg" viewBox="0 0 1000 1000">
  <defs>
    <style>
      .cls-1 {
        fill: #040000;
      }
    </style>
  </defs>
  <path class="cls-1" d="M732.44,397.38c-1.76-61.34-49.48-111.54-110.64-116.31-4.77-61.16-54.98-108.88-116.31-110.63v-.06h-7v.06c-61.65,1.76-112.04,49.96-116.37,111.56-61.6,4.34-109.8,54.73-111.56,116.37h-.06v7h.06c1.76,61.34,49.48,111.55,110.64,116.31,4.77,61.16,54.98,108.88,116.31,110.63v.06h3.23c.33,.1,.67,.17,1.04,.17h0c.36,0,.71-.07,1.04-.17h1.69v-.06c61.65-1.76,112.04-49.96,116.37-111.56,61.6-4.34,109.8-54.73,111.56-116.37h.06v-7h-.06Zm-138.39,34.44c-.16,.5-.32,1-.49,1.49-.14,.42-.29,.83-.44,1.24-.12,.33-.23,.67-.36,1-.2,.53-.4,1.06-.61,1.59-.08,.2-.15,.4-.23,.61-.26,.66-.53,1.31-.8,1.96-.03,.06-.05,.12-.08,.19-.19,.46-.4,.91-.6,1.36-.34,.78-.7,1.55-1.06,2.32-.37,.77-.74,1.54-1.13,2.31-.19,.37-.38,.73-.57,1.1-.61,1.16-1.23,2.32-1.89,3.45-.01,.02-.02,.04-.03,.06-3.5,6.07-7.63,11.73-12.3,16.89l-62.28-62.28,87.49-.1c-.28,8.91-1.74,17.63-4.38,26.03-.08,.26-.17,.52-.25,.77Zm-54.71,59.38c-.46,.19-.91,.38-1.37,.56-.29,.12-.59,.23-.88,.34-.46,.18-.93,.36-1.4,.53-.26,.09-.52,.18-.77,.28-.51,.18-1.02,.37-1.53,.54-.19,.06-.38,.12-.57,.19-.58,.19-1.17,.39-1.76,.57-.08,.03-.16,.05-.24,.07-3.79,1.17-7.67,2.12-11.64,2.82-4.61,.82-9.29,1.3-14.03,1.45l-.1-89.68,63.5,63.5c-.38,.36-.75,.73-1.14,1.08-.04,.03-.07,.06-.11,.1-1.08,.97-2.18,1.92-3.3,2.84-.11,.09-.23,.19-.35,.28-1.06,.86-2.13,1.7-3.21,2.52-.17,.12-.34,.24-.5,.37-1.01,.74-2.02,1.47-3.06,2.17-.21,.14-.43,.29-.64,.43-1.05,.7-2.12,1.39-3.2,2.05-.14,.08-.27,.17-.41,.26-1.2,.73-2.42,1.43-3.66,2.11-.08,.05-.17,.09-.25,.14-1.3,.71-2.62,1.39-3.95,2.04-.02,0-.04,.02-.06,.03-1.37,.67-2.75,1.3-4.15,1.91h0c-.12,.05-.24,.11-.36,.16-.28,.12-.57,.24-.86,.36Zm-131.23-117.51c.19-.66,.38-1.31,.59-1.96,.11-.36,.23-.71,.35-1.07,.13-.4,.26-.8,.39-1.19,.17-.5,.35-.99,.53-1.49,.09-.25,.17-.5,.27-.75,.22-.61,.45-1.21,.69-1.81,.05-.13,.1-.26,.15-.39,.47-1.19,.97-2.36,1.48-3.52,.35-.8,.71-1.58,1.08-2.37,.36-.76,.73-1.52,1.11-2.27,.19-.38,.38-.75,.58-1.12,.61-1.16,1.23-2.3,1.88-3.43,.01-.02,.03-.05,.04-.07,3.73-6.47,8.19-12.48,13.25-17.91l63.8,63.8-89.98,.1c.22-8.27,1.46-16.37,3.7-24.22,.03-.11,.06-.21,.1-.32Zm55.65-62.18c.41-.17,.83-.34,1.25-.51,.34-.13,.67-.26,1.01-.39,.42-.16,.84-.33,1.27-.48,.31-.11,.61-.22,.92-.33,.46-.17,.92-.33,1.39-.49,.24-.08,.49-.16,.74-.24,.53-.18,1.06-.35,1.59-.52,.15-.05,.3-.09,.46-.14,.63-.19,1.25-.38,1.88-.56,.04-.01,.07-.02,.11-.03,2.63-.74,5.3-1.38,8.01-1.9,5.09-.98,10.28-1.56,15.53-1.72l.1,87.76-62.54-62.54s.1-.09,.15-.14c.01-.01,.03-.02,.04-.03,1.1-.99,2.22-1.96,3.37-2.9,.09-.07,.18-.15,.27-.22,1.08-.88,2.17-1.74,3.29-2.58,.14-.11,.28-.21,.43-.31,1.04-.77,2.1-1.52,3.17-2.25,.17-.12,.35-.24,.52-.35,1.09-.73,2.19-1.44,3.31-2.12,.11-.07,.22-.14,.33-.2,1.23-.75,2.48-1.47,3.74-2.16,.06-.03,.12-.07,.18-.1,2.66-1.45,5.39-2.78,8.18-3.99h0c.11-.05,.22-.1,.33-.14,.33-.14,.66-.27,.99-.41Zm-33.27,155.92c-15.34-16.47-25.07-38.23-26.12-62.2l88.42-.1-62.3,62.3Zm142.01-132.11c15.44,16.59,25.2,38.53,26.14,62.7l-88.93,.1,62.79-62.79Zm-4.95-4.95l-62.53,62.53-.1-88.68c12.04,.48,23.53,3.13,34.08,7.6,10.6,4.49,20.25,10.81,28.55,18.55Zm-132.11,142.01l62.6-62.6,.1,88.75c-10.4-.4-20.39-2.43-29.72-5.85-12.35-4.53-23.53-11.49-32.98-20.29Zm290-75h-118.78c-.24-7.43-1.26-14.73-3.03-21.85-.02-.08-.04-.15-.06-.23-.14-.56-.29-1.11-.43-1.66-.1-.38-.21-.76-.31-1.14-.08-.3-.17-.6-.26-.9-.2-.68-.4-1.36-.61-2.04,0-.03-.02-.06-.03-.09-3.6-11.5-9.17-22.3-16.56-31.98-.22-.28-.44-.57-.65-.85-.4-.51-.8-1.01-1.21-1.52-.72-.89-1.45-1.77-2.2-2.63-.06-.07-.13-.15-.19-.23-.86-.99-1.73-1.96-2.62-2.92l41.4-41.4c58.18,3.83,103.79,51.29,105.55,109.42Zm-110.52-114.37l-41.39,41.39c-2.62-2.46-5.38-4.78-8.27-6.97-.12-.09-.23-.18-.35-.27-.08-.06-.15-.12-.23-.18-.19-.14-.39-.28-.58-.43-.35-.26-.71-.52-1.06-.78-12.58-9.08-26.93-15.17-42.19-17.93-.14-.02-.27-.05-.41-.08-.5-.09-1-.17-1.5-.25-.41-.07-.82-.14-1.22-.2-.19-.03-.37-.05-.56-.08-3.85-.56-7.74-.9-11.66-1.03v-118.79c58.13,1.76,105.59,47.38,109.42,105.57Zm-117.13-105.54l.13,118.78c-4.48,.17-8.89,.63-13.21,1.35-.38,.06-.77,.12-1.15,.19-.15,.03-.3,.06-.45,.08-16.18,2.93-31.36,9.62-44.48,19.63-.3,.22-.59,.45-.88,.68-.49,.38-.98,.77-1.47,1.17-.92,.74-1.83,1.5-2.72,2.27-.05,.04-.1,.09-.15,.13-1,.86-1.98,1.74-2.94,2.65l-41.39-41.39c3.81-57.95,50.9-103.43,108.72-105.54Zm-114.63,111.48l41.4,41.4c-13.36,14.23-22.3,31.56-26.13,50.36,0,.03-.01,.06-.02,.09-.11,.52-.2,1.04-.3,1.56-.08,.41-.16,.83-.23,1.24-.02,.11-.04,.23-.06,.34-.81,4.67-1.3,9.44-1.47,14.3l-118.78,.13c1.77-58.14,47.39-105.59,105.59-109.42Zm-105.59,116.42h118.78c.24,7.44,1.26,14.75,3.04,21.88,.02,.06,.03,.12,.04,.18,.14,.57,.29,1.13,.44,1.7,.1,.37,.2,.74,.3,1.11,.09,.31,.18,.62,.27,.93,.19,.67,.39,1.34,.6,2,.01,.04,.03,.08,.04,.12,3.59,11.49,9.17,22.28,16.55,31.95,.22,.3,.45,.59,.68,.88,.38,.49,.77,.98,1.17,1.47,.74,.92,1.5,1.83,2.27,2.72,.04,.05,.09,.1,.13,.15,.86,.99,1.74,1.97,2.64,2.93l-41.4,41.4c-58.18-3.83-103.79-51.29-105.55-109.42Zm110.52,114.37l41.39-41.39c2.63,2.46,5.4,4.8,8.29,6.99,.11,.09,.22,.17,.34,.26,.07,.05,.14,.11,.21,.16,.19,.14,.38,.28,.56,.41,.36,.27,.73,.54,1.09,.8,12.56,9.06,26.88,15.15,42.11,17.91,.16,.03,.33,.06,.49,.09,.47,.08,.95,.16,1.42,.24,.43,.07,.86,.14,1.3,.21,.16,.02,.32,.04,.49,.07,3.87,.56,7.78,.91,11.73,1.04v118.79c-58.13-1.76-105.59-47.38-109.42-105.57Zm117.19,105.54l-.13-118.78c4.38-.17,8.7-.61,12.93-1.31,.47-.08,.94-.15,1.4-.23,.09-.02,.18-.03,.27-.05,16.24-2.92,31.46-9.62,44.62-19.66,.3-.22,.59-.45,.88-.68,.49-.38,.98-.77,1.46-1.16,.92-.74,1.83-1.5,2.73-2.28,.05-.04,.1-.08,.15-.13,1-.86,1.98-1.74,2.94-2.65l41.39,41.39c-3.81,57.93-50.87,103.4-108.65,105.54Zm114.57-111.48l-26.96-26.96s-.06-.08-.09-.11l-14.33-14.33c13.34-14.21,22.27-31.51,26.11-50.28,.01-.06,.03-.12,.04-.18,.1-.49,.19-.98,.28-1.47,.08-.44,.17-.89,.25-1.33,.01-.08,.03-.16,.04-.24,.79-4.54,1.28-9.17,1.46-13.88l118.78-.13c-2.01,57.91-47.54,105.11-105.57,108.92Z"/>
  <path class="cls-1" d="M424.65,666.17h-5.1c-.91,0-1.7,.61-1.93,1.49l-33.3,125.96-33.47-125.96c-.23-.88-1.03-1.49-1.93-1.49h-5.01c-1.1,0-2,.9-2,2v139.44c0,1.1,.9,2,2,2h4c1.1,0,2-.9,2-2v-113l30.11,113.51c.23,.88,1.03,1.49,1.93,1.49h4.64c.91,0,1.7-.61,1.93-1.49l30.02-113.47v112.96c0,1.1,.9,2,2,2h4.1c1.1,0,2-.9,2-2v-139.44c0-1.1-.9-2-2-2Z"/>
  <path class="cls-1" d="M522.72,667.29h-4c-1.1,0-2,.9-2,2v115.87c0,12.91-6.26,18.66-20.3,18.66-11.17,0-23.12-4.9-23.12-18.66v-115.87c0-1.1-.9-2-2-2h-4c-1.1,0-2,.9-2,2v115.78c0,16.5,11.82,26.76,30.85,26.76h.46c18.66,0,28.12-8.97,28.12-26.67v-115.87c0-1.1-.9-2-2-2Z"/>
  <path class="cls-1" d="M611.61,801.66c2.98-2.5,7.57-8.33,7.57-20.41v-91.84c0-15.24-11.94-26.3-28.39-26.3h-.27c-13.87,0-28.21,9.84-28.21,26.3v91.84c0,16.92,14.48,27.03,28.48,27.03h.82c5.39,0,10.58-1.41,12.82-2.11l24.35,21.45c.38,.33,.85,.5,1.32,.5,.54,0,1.08-.22,1.48-.65l2.82-3.09c.36-.4,.55-.92,.52-1.46-.03-.54-.27-1.04-.68-1.39l-22.63-19.87Zm-.44-112.25v91.84c0,12.95-10.57,18.84-20.39,18.84s-20.48-7.57-20.48-18.84v-91.84c0-10.16,9-18.12,20.48-18.12s20.39,7.96,20.39,18.12Z"/>
  <rect class="cls-1" x="658.78" y="666.36" width="8" height="143.44" rx="2" ry="2"/>
</svg>